<svg id="visual" viewBox="0 0 960 540" width="960" height="540" xmlns="http://www.w3.org/2000/svg" xmlns:xlink="http://www.w3.org/1999/xlink" version="1.1"><path d="M0 120L14.5 114.5C29 109 58 98 87.2 102.5C116.3 107 145.7 127 174.8 133.3C204 139.7 233 132.3 262 126.8C291 121.3 320 117.7 349 127.7C378 137.7 407 161.3 436.2 167.7C465.3 174 494.7 163 523.8 152.2C553 141.3 582 130.7 611 132.5C640 134.3 669 148.7 698 152.2C727 155.7 756 148.3 785.2 148.3C814.3 148.3 843.7 155.7 872.8 151.2C902 146.7 931 130.3 945.5 122.2L960 114L960 0L945.5 0C931 0 902 0 872.8 0C843.7 0 814.3 0 785.2 0C756 0 727 0 698 0C669 0 640 0 611 0C582 0 553 0 523.8 0C494.7 0 465.3 0 436.2 0C407 0 378 0 349 0C320 0 291 0 262 0C233 0 204 0 174.8 0C145.7 0 116.3 0 87.2 0C58 0 29 0 14.5 0L0 0Z" fill="#95cfff"></path><path d="M0 152L14.5 151.2C29 150.3 58 148.7 87.2 164.8C116.3 181 145.7 215 174.8 229.3C204 243.7 233 238.3 262 229.3C291 220.3 320 207.7 349 206.8C378 206 407 217 436.2 222.5C465.3 228 494.7 228 523.8 223.5C553 219 582 210 611 210.8C640 211.7 669 222.3 698 218.7C727 215 756 197 785.2 202.5C814.3 208 843.7 237 872.8 242.5C902 248 931 230 945.5 221L960 212L960 112L945.5 120.2C931 128.3 902 144.7 872.8 149.2C843.7 153.7 814.3 146.3 785.2 146.3C756 146.3 727 153.7 698 150.2C669 146.7 640 132.3 611 130.5C582 128.7 553 139.3 523.8 150.2C494.7 161 465.3 172 436.2 165.7C407 159.3 378 135.7 349 125.7C320 115.7 291 119.3 262 124.8C233 130.3 204 137.7 174.8 131.3C145.7 125 116.3 105 87.2 100.5C58 96 29 107 14.5 112.5L0 118Z" fill="#bee0ff"></path><path d="M0 190L14.5 187.3C29 184.7 58 179.3 87.2 194.7C116.3 210 145.7 246 174.8 259.5C204 273 233 264 262 255.8C291 247.7 320 240.3 349 242.2C378 244 407 255 436.2 256.8C465.3 258.7 494.7 251.3 523.8 243.2C553 235 582 226 611 230.5C640 235 669 253 698 253.8C727 254.7 756 238.3 785.2 242C814.3 245.7 843.7 269.3 872.8 272.2C902 275 931 257 945.5 248L960 239L960 210L945.5 219C931 228 902 246 872.8 240.5C843.7 235 814.3 206 785.2 200.5C756 195 727 213 698 216.7C669 220.3 640 209.7 611 208.8C582 208 553 217 523.8 221.5C494.7 226 465.3 226 436.2 220.5C407 215 378 204 349 204.8C320 205.7 291 218.3 262 227.3C233 236.3 204 241.7 174.8 227.3C145.7 213 116.3 179 87.2 162.8C58 146.7 29 148.3 14.5 149.2L0 150Z" fill="#e3f1ff"></path><path d="M0 244L14.5 240.3C29 236.7 58 229.3 87.2 242.8C116.3 256.3 145.7 290.7 174.8 305.2C204 319.7 233 314.3 262 305.3C291 296.3 320 283.7 349 283.7C378 283.7 407 296.3 436.2 301.7C465.3 307 494.7 305 523.8 294.2C553 283.3 582 263.7 611 263.7C640 263.7 669 283.3 698 283.3C727 283.3 756 263.7 785.2 267.3C814.3 271 843.7 298 872.8 299.8C902 301.7 931 278.3 945.5 266.7L960 255L960 237L945.5 246C931 255 902 273 872.8 270.2C843.7 267.3 814.3 243.7 785.2 240C756 236.3 727 252.7 698 251.8C669 251 640 233 611 228.5C582 224 553 233 523.8 241.2C494.7 249.3 465.3 256.7 436.2 254.8C407 253 378 242 349 240.2C320 238.3 291 245.7 262 253.8C233 262 204 271 174.8 257.5C145.7 244 116.3 208 87.2 192.7C58 177.3 29 182.7 14.5 185.3L0 188Z" fill="#ffffff"></path><path d="M0 309L14.5 305.3C29 301.7 58 294.3 87.2 302.3C116.3 310.3 145.7 333.7 174.8 341.8C204 350 233 343 262 335C291 327 320 318 349 323.3C378 328.7 407 348.3 436.2 357.3C465.3 366.3 494.7 364.7 523.8 353C553 341.3 582 319.7 611 320.5C640 321.3 669 344.7 698 345.5C727 346.3 756 324.7 785.2 321.2C814.3 317.7 843.7 332.3 872.8 328.8C902 325.3 931 303.7 945.5 292.8L960 282L960 253L945.5 264.7C931 276.3 902 299.7 872.8 297.8C843.7 296 814.3 269 785.2 265.3C756 261.7 727 281.3 698 281.3C669 281.3 640 261.7 611 261.7C582 261.7 553 281.3 523.8 292.2C494.7 303 465.3 305 436.2 299.7C407 294.3 378 281.7 349 281.7C320 281.7 291 294.3 262 303.3C233 312.3 204 317.7 174.8 303.2C145.7 288.7 116.3 254.3 87.2 240.8C58 227.3 29 234.7 14.5 238.3L0 242Z" fill="#ffffff"></path><path d="M0 374L14.5 368.5C29 363 58 352 87.2 362.7C116.3 373.3 145.7 405.7 174.8 410.2C204 414.7 233 391.3 262 377C291 362.7 320 357.3 349 365.5C378 373.7 407 395.3 436.2 406.2C465.3 417 494.7 417 523.8 411.5C553 406 582 395 611 395.8C640 396.7 669 409.3 698 405.8C727 402.3 756 382.7 785.2 384.5C814.3 386.3 843.7 409.7 872.8 401.5C902 393.3 931 353.7 945.5 333.8L960 314L960 280L945.5 290.8C931 301.7 902 323.3 872.8 326.8C843.7 330.3 814.3 315.7 785.2 319.2C756 322.7 727 344.3 698 343.5C669 342.7 640 319.3 611 318.5C582 317.7 553 339.3 523.8 351C494.7 362.7 465.3 364.3 436.2 355.3C407 346.3 378 326.7 349 321.3C320 316 291 325 262 333C233 341 204 348 174.8 339.8C145.7 331.7 116.3 308.3 87.2 300.3C58 292.3 29 299.7 14.5 303.3L0 307Z" fill="#e3f1ff"></path><path d="M0 514L14.5 508.7C29 503.3 58 492.7 87.2 487.3C116.3 482 145.7 482 174.8 485.5C204 489 233 496 262 496.8C291 497.7 320 492.3 349 492.3C378 492.3 407 497.7 436.2 500.3C465.3 503 494.7 503 523.8 499.5C553 496 582 489 611 484.5C640 480 669 478 698 482.5C727 487 756 498 785.2 499.8C814.3 501.7 843.7 494.3 872.8 489.8C902 485.3 931 483.7 945.5 482.8L960 482L960 312L945.5 331.8C931 351.7 902 391.3 872.8 399.5C843.7 407.7 814.3 384.3 785.2 382.5C756 380.7 727 400.3 698 403.8C669 407.3 640 394.7 611 393.8C582 393 553 404 523.8 409.5C494.7 415 465.3 415 436.2 404.2C407 393.3 378 371.7 349 363.5C320 355.3 291 360.7 262 375C233 389.3 204 412.7 174.8 408.2C145.7 403.7 116.3 371.3 87.2 360.7C58 350 29 361 14.5 366.5L0 372Z" fill="#bee0ff"></path><path d="M0 541L14.5 541C29 541 58 541 87.2 541C116.3 541 145.7 541 174.8 541C204 541 233 541 262 541C291 541 320 541 349 541C378 541 407 541 436.2 541C465.3 541 494.7 541 523.8 541C553 541 582 541 611 541C640 541 669 541 698 541C727 541 756 541 785.2 541C814.3 541 843.7 541 872.8 541C902 541 931 541 945.5 541L960 541L960 480L945.5 480.8C931 481.7 902 483.3 872.8 487.8C843.7 492.3 814.3 499.7 785.2 497.8C756 496 727 485 698 480.5C669 476 640 478 611 482.5C582 487 553 494 523.8 497.5C494.7 501 465.3 501 436.2 498.3C407 495.7 378 490.3 349 490.3C320 490.3 291 495.7 262 494.8C233 494 204 487 174.8 483.5C145.7 480 116.3 480 87.2 485.3C58 490.7 29 501.3 14.5 506.7L0 512Z" fill="#95cfff"></path></svg>