<svg id="visual" viewBox="0 0 960 540" width="960" height="540" xmlns="http://www.w3.org/2000/svg" xmlns:xlink="http://www.w3.org/1999/xlink" version="1.1"><path d="M0 12L12.3 17.3C24.7 22.7 49.3 33.3 74 38.7C98.7 44 123.3 44 148 45C172.7 46 197.3 48 221.8 47.2C246.3 46.3 270.7 42.7 295.2 40.8C319.7 39 344.3 39 369 38C393.7 37 418.3 35 443 34C467.7 33 492.3 33 517 29.5C541.7 26 566.3 19 591 17.3C615.7 15.7 640.3 19.3 664.8 25.7C689.3 32 713.7 41 738.2 42.7C762.7 44.3 787.3 38.7 812 40.3C836.7 42 861.3 51 886 49.3C910.7 47.7 935.3 35.3 947.7 29.2L960 23L960 0L947.7 0C935.3 0 910.7 0 886 0C861.3 0 836.7 0 812 0C787.3 0 762.7 0 738.2 0C713.7 0 689.3 0 664.8 0C640.3 0 615.7 0 591 0C566.3 0 541.7 0 517 0C492.3 0 467.7 0 443 0C418.3 0 393.7 0 369 0C344.3 0 319.7 0 295.2 0C270.7 0 246.3 0 221.8 0C197.3 0 172.7 0 148 0C123.3 0 98.7 0 74 0C49.3 0 24.7 0 12.3 0L0 0Z" fill="#ffffff"></path><path d="M0 39L12.3 46.2C24.7 53.3 49.3 67.7 74 72.2C98.7 76.7 123.3 71.3 148 67.7C172.7 64 197.3 62 221.8 59.3C246.3 56.7 270.7 53.3 295.2 57.8C319.7 62.3 344.3 74.7 369 80.8C393.7 87 418.3 87 443 81.7C467.7 76.3 492.3 65.7 517 55C541.7 44.3 566.3 33.7 591 35.5C615.7 37.3 640.3 51.7 664.8 61.5C689.3 71.3 713.7 76.7 738.2 77.5C762.7 78.3 787.3 74.7 812 76.5C836.7 78.3 861.3 85.7 886 82.2C910.7 78.7 935.3 64.3 947.7 57.2L960 50L960 21L947.7 27.2C935.3 33.3 910.7 45.7 886 47.3C861.3 49 836.7 40 812 38.3C787.3 36.7 762.7 42.3 738.2 40.7C713.7 39 689.3 30 664.8 23.7C640.3 17.3 615.7 13.7 591 15.3C566.3 17 541.7 24 517 27.5C492.3 31 467.7 31 443 32C418.3 33 393.7 35 369 36C344.3 37 319.7 37 295.2 38.8C270.7 40.7 246.3 44.3 221.8 45.2C197.3 46 172.7 44 148 43C123.3 42 98.7 42 74 36.7C49.3 31.3 24.7 20.7 12.3 15.3L0 10Z" fill="#edf7f5"></path><path d="M0 222L12.3 224.8C24.7 227.7 49.3 233.3 74 229.8C98.7 226.3 123.3 213.7 148 209.2C172.7 204.7 197.3 208.3 221.8 203.8C246.3 199.3 270.7 186.7 295.2 192C319.7 197.3 344.3 220.7 369 215.2C393.7 209.7 418.3 175.3 443 152C467.7 128.7 492.3 116.3 517 116.3C541.7 116.3 566.3 128.7 591 134C615.7 139.3 640.3 137.7 664.8 144C689.3 150.3 713.7 164.7 738.2 183.5C762.7 202.3 787.3 225.7 812 231.2C836.7 236.7 861.3 224.3 886 202.8C910.7 181.3 935.3 150.7 947.7 135.3L960 120L960 48L947.7 55.2C935.3 62.3 910.7 76.7 886 80.2C861.3 83.7 836.7 76.3 812 74.5C787.3 72.7 762.7 76.3 738.2 75.5C713.7 74.7 689.3 69.3 664.8 59.5C640.3 49.7 615.7 35.3 591 33.5C566.3 31.7 541.7 42.3 517 53C492.3 63.7 467.7 74.3 443 79.7C418.3 85 393.7 85 369 78.8C344.3 72.7 319.7 60.3 295.2 55.8C270.7 51.3 246.3 54.7 221.8 57.3C197.3 60 172.7 62 148 65.7C123.3 69.3 98.7 74.7 74 70.2C49.3 65.7 24.7 51.3 12.3 44.2L0 37Z" fill="#dbeeec"></path><path d="M0 239L12.3 239.8C24.7 240.7 49.3 242.3 74 237.8C98.7 233.3 123.3 222.7 148 218.2C172.7 213.7 197.3 215.3 221.8 213.5C246.3 211.7 270.7 206.3 295.2 211.7C319.7 217 344.3 233 369 226.7C393.7 220.3 418.3 191.7 443 171C467.7 150.3 492.3 137.7 517 135.8C541.7 134 566.3 143 591 146.7C615.7 150.3 640.3 148.7 664.8 157.7C689.3 166.7 713.7 186.3 738.2 207C762.7 227.7 787.3 249.3 812 255.7C836.7 262 861.3 253 886 231.3C910.7 209.7 935.3 175.3 947.7 158.2L960 141L960 118L947.7 133.3C935.3 148.7 910.7 179.3 886 200.8C861.3 222.3 836.7 234.7 812 229.2C787.3 223.7 762.7 200.3 738.2 181.5C713.7 162.7 689.3 148.3 664.8 142C640.3 135.7 615.7 137.3 591 132C566.3 126.7 541.7 114.3 517 114.3C492.3 114.3 467.7 126.7 443 150C418.3 173.3 393.7 207.7 369 213.2C344.3 218.7 319.7 195.3 295.2 190C270.7 184.7 246.3 197.3 221.8 201.8C197.3 206.3 172.7 202.7 148 207.2C123.3 211.7 98.7 224.3 74 227.8C49.3 231.3 24.7 225.7 12.3 222.8L0 220Z" fill="#c9e6e2"></path><path d="M0 276L12.3 274.3C24.7 272.7 49.3 269.3 74 260.3C98.7 251.3 123.3 236.7 148 232.2C172.7 227.7 197.3 233.3 221.8 232.5C246.3 231.7 270.7 224.3 295.2 230.5C319.7 236.7 344.3 256.3 369 248.2C393.7 240 418.3 204 443 179.8C467.7 155.7 492.3 143.3 517 146.2C541.7 149 566.3 167 591 172.3C615.7 177.7 640.3 170.3 664.8 177.5C689.3 184.7 713.7 206.3 738.2 225.2C762.7 244 787.3 260 812 263.5C836.7 267 861.3 258 886 241C910.7 224 935.3 199 947.7 186.5L960 174L960 139L947.7 156.2C935.3 173.3 910.7 207.7 886 229.3C861.3 251 836.7 260 812 253.7C787.3 247.3 762.7 225.7 738.2 205C713.7 184.3 689.3 164.7 664.8 155.7C640.3 146.7 615.7 148.3 591 144.7C566.3 141 541.7 132 517 133.8C492.3 135.7 467.7 148.3 443 169C418.3 189.7 393.7 218.3 369 224.7C344.3 231 319.7 215 295.2 209.7C270.7 204.3 246.3 209.7 221.8 211.5C197.3 213.3 172.7 211.7 148 216.2C123.3 220.7 98.7 231.3 74 235.8C49.3 240.3 24.7 238.7 12.3 237.8L0 237Z" fill="#b7ded9"></path><path d="M0 314L12.3 310.5C24.7 307 49.3 300 74 286.5C98.7 273 123.3 253 148 251.2C172.7 249.3 197.3 265.7 221.8 269.3C246.3 273 270.7 264 295.2 265.8C319.7 267.7 344.3 280.3 369 269.5C393.7 258.7 418.3 224.3 443 201.8C467.7 179.3 492.3 168.7 517 175C541.7 181.3 566.3 204.7 591 211.8C615.7 219 640.3 210 664.8 217.2C689.3 224.3 713.7 247.7 738.2 267.5C762.7 287.3 787.3 303.7 812 302.8C836.7 302 861.3 284 886 266.8C910.7 249.7 935.3 233.3 947.7 225.2L960 217L960 172L947.7 184.5C935.3 197 910.7 222 886 239C861.3 256 836.7 265 812 261.5C787.3 258 762.7 242 738.2 223.2C713.7 204.3 689.3 182.7 664.8 175.5C640.3 168.3 615.7 175.7 591 170.3C566.3 165 541.7 147 517 144.2C492.3 141.3 467.7 153.7 443 177.8C418.3 202 393.7 238 369 246.2C344.3 254.3 319.7 234.7 295.2 228.5C270.7 222.3 246.3 229.7 221.8 230.5C197.3 231.3 172.7 225.7 148 230.2C123.3 234.7 98.7 249.3 74 258.3C49.3 267.3 24.7 270.7 12.3 272.3L0 274Z" fill="#a4d5d0"></path><path d="M0 395L12.3 393.2C24.7 391.3 49.3 387.7 74 375.2C98.7 362.7 123.3 341.3 148 337.8C172.7 334.3 197.3 348.7 221.8 345C246.3 341.3 270.7 319.7 295.2 315.2C319.7 310.7 344.3 323.3 369 342.2C393.7 361 418.3 386 443 381.5C467.7 377 492.3 343 517 340.3C541.7 337.7 566.3 366.3 591 367.2C615.7 368 640.3 341 664.8 334.7C689.3 328.3 713.7 342.7 738.2 351.7C762.7 360.7 787.3 364.3 812 363.5C836.7 362.7 861.3 357.3 886 351C910.7 344.7 935.3 337.3 947.7 333.7L960 330L960 215L947.7 223.2C935.3 231.3 910.7 247.7 886 264.8C861.3 282 836.7 300 812 300.8C787.3 301.7 762.7 285.3 738.2 265.5C713.7 245.7 689.3 222.3 664.8 215.2C640.3 208 615.7 217 591 209.8C566.3 202.7 541.7 179.3 517 173C492.3 166.7 467.7 177.3 443 199.8C418.3 222.3 393.7 256.7 369 267.5C344.3 278.3 319.7 265.7 295.2 263.8C270.7 262 246.3 271 221.8 267.3C197.3 263.7 172.7 247.3 148 249.2C123.3 251 98.7 271 74 284.5C49.3 298 24.7 305 12.3 308.5L0 312Z" fill="#92cdc6"></path><path d="M0 411L12.3 409.3C24.7 407.7 49.3 404.3 74 390C98.7 375.7 123.3 350.3 148 346.7C172.7 343 197.3 361 221.8 361.8C246.3 362.7 270.7 346.3 295.2 346.3C319.7 346.3 344.3 362.7 369 381.7C393.7 400.7 418.3 422.3 443 416C467.7 409.7 492.3 375.3 517 369C541.7 362.7 566.3 384.3 591 384.3C615.7 384.3 640.3 362.7 664.8 357.3C689.3 352 713.7 363 738.2 373.8C762.7 384.7 787.3 395.3 812 393.5C836.7 391.7 861.3 377.3 886 367.5C910.7 357.7 935.3 352.3 947.7 349.7L960 347L960 328L947.7 331.7C935.3 335.3 910.7 342.7 886 349C861.3 355.3 836.7 360.7 812 361.5C787.3 362.3 762.7 358.7 738.2 349.7C713.7 340.7 689.3 326.3 664.8 332.7C640.3 339 615.7 366 591 365.2C566.3 364.3 541.7 335.7 517 338.3C492.3 341 467.7 375 443 379.5C418.3 384 393.7 359 369 340.2C344.3 321.3 319.7 308.7 295.2 313.2C270.7 317.7 246.3 339.3 221.8 343C197.3 346.7 172.7 332.3 148 335.8C123.3 339.3 98.7 360.7 74 373.2C49.3 385.7 24.7 389.3 12.3 391.2L0 393Z" fill="#7ec5bd"></path><path d="M0 428L12.3 435.2C24.7 442.3 49.3 456.7 74 463.8C98.7 471 123.3 471 148 463.8C172.7 456.7 197.3 442.3 221.8 433.3C246.3 424.3 270.7 420.7 295.2 424.2C319.7 427.7 344.3 438.3 369 450C393.7 461.7 418.3 474.3 443 469C467.7 463.7 492.3 440.3 517 432.2C541.7 424 566.3 431 591 435.5C615.7 440 640.3 442 664.8 443.8C689.3 445.7 713.7 447.3 738.2 444.7C762.7 442 787.3 435 812 430.5C836.7 426 861.3 424 886 418.5C910.7 413 935.3 404 947.7 399.5L960 395L960 345L947.7 347.7C935.3 350.3 910.7 355.7 886 365.5C861.3 375.3 836.7 389.7 812 391.5C787.3 393.3 762.7 382.7 738.2 371.8C713.7 361 689.3 350 664.8 355.3C640.3 360.7 615.7 382.3 591 382.3C566.3 382.3 541.7 360.7 517 367C492.3 373.3 467.7 407.7 443 414C418.3 420.3 393.7 398.7 369 379.7C344.3 360.7 319.7 344.3 295.2 344.3C270.7 344.3 246.3 360.7 221.8 359.8C197.3 359 172.7 341 148 344.7C123.3 348.3 98.7 373.7 74 388C49.3 402.3 24.7 405.7 12.3 407.3L0 409Z" fill="#69bcb4"></path><path d="M0 460L12.3 462.7C24.7 465.3 49.3 470.7 74 474.3C98.7 478 123.3 480 148 475.5C172.7 471 197.3 460 221.8 451.8C246.3 443.7 270.7 438.3 295.2 443.8C319.7 449.3 344.3 465.7 369 477.3C393.7 489 418.3 496 443 487.8C467.7 479.7 492.3 456.3 517 451.8C541.7 447.3 566.3 461.7 591 467C615.7 472.3 640.3 468.7 664.8 466.8C689.3 465 713.7 465 738.2 460.5C762.7 456 787.3 447 812 444.3C836.7 441.7 861.3 445.3 886 443.7C910.7 442 935.3 435 947.7 431.5L960 428L960 393L947.7 397.5C935.3 402 910.7 411 886 416.5C861.3 422 836.7 424 812 428.5C787.3 433 762.7 440 738.2 442.7C713.7 445.3 689.3 443.7 664.8 441.8C640.3 440 615.7 438 591 433.5C566.3 429 541.7 422 517 430.2C492.3 438.3 467.7 461.7 443 467C418.3 472.3 393.7 459.7 369 448C344.3 436.3 319.7 425.7 295.2 422.2C270.7 418.7 246.3 422.3 221.8 431.3C197.3 440.3 172.7 454.7 148 461.8C123.3 469 98.7 469 74 461.8C49.3 454.7 24.7 440.3 12.3 433.2L0 426Z" fill="#53b4ab"></path><path d="M0 471L12.3 475.5C24.7 480 49.3 489 74 497C98.7 505 123.3 512 148 516.5C172.7 521 197.3 523 221.8 524C246.3 525 270.7 525 295.2 525C319.7 525 344.3 525 369 524C393.7 523 418.3 521 443 518.3C467.7 515.7 492.3 512.3 517 509.7C541.7 507 566.3 505 591 508.5C615.7 512 640.3 521 664.8 516.5C689.3 512 713.7 494 738.2 492.2C762.7 490.3 787.3 504.7 812 507.3C836.7 510 861.3 501 886 494.8C910.7 488.7 935.3 485.3 947.7 483.7L960 482L960 426L947.7 429.5C935.3 433 910.7 440 886 441.7C861.3 443.3 836.7 439.7 812 442.3C787.3 445 762.7 454 738.2 458.5C713.7 463 689.3 463 664.8 464.8C640.3 466.7 615.7 470.3 591 465C566.3 459.7 541.7 445.3 517 449.8C492.3 454.3 467.7 477.7 443 485.8C418.3 494 393.7 487 369 475.3C344.3 463.7 319.7 447.3 295.2 441.8C270.7 436.3 246.3 441.7 221.8 449.8C197.3 458 172.7 469 148 473.5C123.3 478 98.7 476 74 472.3C49.3 468.7 24.7 463.3 12.3 460.7L0 458Z" fill="#38aba2"></path><path d="M0 541L12.3 541C24.7 541 49.3 541 74 541C98.7 541 123.3 541 148 541C172.7 541 197.3 541 221.8 541C246.3 541 270.7 541 295.2 541C319.7 541 344.3 541 369 541C393.7 541 418.3 541 443 541C467.7 541 492.3 541 517 541C541.7 541 566.3 541 591 541C615.7 541 640.3 541 664.8 541C689.3 541 713.7 541 738.2 541C762.7 541 787.3 541 812 541C836.7 541 861.3 541 886 541C910.7 541 935.3 541 947.7 541L960 541L960 480L947.7 481.7C935.3 483.3 910.7 486.7 886 492.8C861.3 499 836.7 508 812 505.3C787.3 502.7 762.7 488.3 738.2 490.2C713.7 492 689.3 510 664.8 514.5C640.3 519 615.7 510 591 506.5C566.3 503 541.7 505 517 507.7C492.3 510.3 467.7 513.7 443 516.3C418.3 519 393.7 521 369 522C344.3 523 319.7 523 295.2 523C270.7 523 246.3 523 221.8 522C197.3 521 172.7 519 148 514.5C123.3 510 98.7 503 74 495C49.3 487 24.7 478 12.3 473.5L0 469Z" fill="#00a399"></path></svg>